<svg width="16" height="26" viewBox="0 0 16 26" fill="none" xmlns="http://www.w3.org/2000/svg">
<g clip-path="url(#clip0_6_2)">
<path d="M0.85083 2.04926L2.67703 2.73234L14.6303 15.0279L15.1284 16.9064H9.81581V18.6141L10.6459 19.1264L11.974 21.8588V24.5911H9.31776L6.66147 19.1264H5.33332L2.67703 21.8588L0.933839 22.2857L0.85083 2.04926Z" fill="white"/>
<path d="M14.6303 15.0279H15.9585V17.7603H10.6459V19.1264H9.31777V16.3941H14.6303V15.0279ZM14.6303 15.0279V13.6617H13.3022V15.0279H14.6303ZM13.3022 13.6617V12.2956H11.9741V13.6617H13.3022ZM11.9741 12.2956V10.9294H10.6459V12.2956H11.9741ZM10.6459 10.9294V9.56322H9.31777V10.9294H10.6459ZM9.31777 9.56322V8.19704H7.98962V9.56322H9.31777ZM7.98962 8.19704V6.83087H6.66148V8.19704H7.98962ZM6.66148 6.83087V5.4647H5.33333V6.83087H6.66148ZM5.33333 5.4647V4.09852H4.00519V5.4647H5.33333ZM4.00519 4.09852V2.73235H2.67704V4.09852H4.00519ZM1.3489 2.73235H2.67704V1.36617H1.3489V0H0.020752V23.225H2.67704V21.8588H1.3489V2.73235ZM5.33333 17.7603V19.1264H6.66148V17.7603H5.33333ZM4.00519 20.4926H5.33333V19.1264H4.00519V20.4926ZM2.67704 21.8588H4.00519V20.4926H2.67704V21.8588ZM6.66148 19.1264V21.8588H7.98962V19.1264H6.66148ZM7.98962 21.8588V24.5911H9.31777V21.8588H7.98962ZM13.3022 24.5911V21.8588H11.9741V24.5911H13.3022ZM11.9741 21.8588V19.1264H10.6459V21.8588H11.9741ZM9.31777 25.9573H11.9741V24.5911H9.31777V25.9573Z" fill="black"/>
</g>
<defs>
<clipPath id="clip0_6_2">
<rect width="16" height="26" fill="white"/>
</clipPath>
</defs>
</svg>
