<svg width="20" height="26" viewBox="0 0 20 26" fill="none" xmlns="http://www.w3.org/2000/svg">
<g clip-path="url(#clip0_6_6)">
<path d="M1.19376 11.8383L0.826447 13.8298L2.36915 15.3787L7.07071 24.8199L16.4738 25.1887L17.6492 22.467L18.8246 18.9192L19.1919 11.027L17.6492 9.47802L15.2984 8.29788L11.7723 7.11774L9.42149 6.74894L8.2461 1.21703H5.89532L5.52801 13.8298L3.17723 11.4695L1.19376 11.8383Z" fill="white"/>
<path d="M4.71993 1.21702H5.89532V14.1986H4.71993V13.0184H3.54454V11.8383H4.71993V1.21702ZM18.8246 10.6582V18.9192H20V10.6582H18.8246ZM0.0183716 10.6582V14.1986H1.19376V11.8383H3.54454V10.6582H0.0183716ZM3.54454 17.739V15.3787H2.36915V17.739H3.54454ZM4.71993 20.0993V17.739H3.54454V20.0993H4.71993ZM5.89532 22.4596V26H17.6492V22.467H16.4738V24.8199H7.07071V22.4596H5.89532V20.0993H4.71993V22.4596H5.89532ZM17.6492 22.4596H18.8246V18.9192H17.6492V22.4596ZM2.36915 15.3787V14.1986H1.19376V15.3787H2.36915ZM17.6492 9.47802V10.6582H18.8246V9.47802H17.6492ZM15.2984 8.29787V13.0184H16.4738V9.47802H17.6492V8.29787H15.2984ZM11.7723 7.11773V11.8383H12.9477V8.29787H15.2984V7.11773H11.7723ZM9.42149 5.93759V1.21702H8.2461V11.8383H9.42149V7.11773H11.7723V5.93759H9.42149ZM5.89532 0.0368805V1.21702H8.2461V0.0368805H5.89532Z" fill="black"/>
</g>
<defs>
<clipPath id="clip0_6_6">
<rect width="20" height="26" fill="white"/>
</clipPath>
</defs>
</svg>
